<svg width="727" height="454" viewBox="0 0 727 454" fill="none" xmlns="http://www.w3.org/2000/svg">
<g filter="url(#filter0_d_31_14)">
<mask id="path-1-outside-1_31_14" maskUnits="userSpaceOnUse" x="32" y="119.363" width="433" height="273" fill="black">
<rect fill="white" x="32" y="119.363" width="433" height="273"/>
<path d="M47.2758 363.727H219.494L220.721 382.136L47.2758 363.727ZM44.8214 324.048H217.04L218.267 342.456L44.8214 324.048ZM35.4128 166.965H207.631L208.858 185.373L35.4128 166.965ZM37.8672 206.235H210.086L210.904 224.644L37.8672 206.235ZM33.3674 127.694H205.586L206.404 146.102L33.3674 127.694ZM40.3216 245.506H212.131L213.358 263.914L40.3216 245.506ZM42.776 284.777H214.585L215.813 303.185L42.776 284.777ZM304.172 127.694V290.095H307.853L369.623 127.694H451.846L346.715 383.363H232.994L217.858 127.694H304.172Z"/>
</mask>
<path d="M47.2758 363.727H219.494L220.721 382.136L47.2758 363.727ZM44.8214 324.048H217.04L218.267 342.456L44.8214 324.048ZM35.4128 166.965H207.631L208.858 185.373L35.4128 166.965ZM37.8672 206.235H210.086L210.904 224.644L37.8672 206.235ZM33.3674 127.694H205.586L206.404 146.102L33.3674 127.694ZM40.3216 245.506H212.131L213.358 263.914L40.3216 245.506ZM42.776 284.777H214.585L215.813 303.185L42.776 284.777ZM304.172 127.694V290.095H307.853L369.623 127.694H451.846L346.715 383.363H232.994L217.858 127.694H304.172Z" fill="white"/>
<path d="M47.2758 363.727V355.546L46.4123 371.863L47.2758 363.727ZM219.494 363.727L227.658 363.183L227.148 355.546H219.494V363.727ZM220.721 382.136L219.858 390.271L229.532 391.298L228.885 381.591L220.721 382.136ZM44.8214 324.048V315.866L43.9579 332.183L44.8214 324.048ZM217.04 324.048L225.203 323.503L224.694 315.866H217.04V324.048ZM218.267 342.456L217.404 350.591L227.077 351.618L226.43 341.912L218.267 342.456ZM35.4128 166.965V158.783L34.5493 175.1L35.4128 166.965ZM207.631 166.965L215.794 166.421L215.285 158.783H207.631V166.965ZM208.858 185.373L207.995 193.509L217.669 194.535L217.022 184.829L208.858 185.373ZM37.8672 206.235V198.054L37.0017 214.371L37.8672 206.235ZM210.086 206.235L218.259 205.872L217.911 198.054H210.086V206.235ZM210.904 224.644L210.038 232.779L219.5 233.786L219.077 224.28L210.904 224.644ZM33.3674 127.694V119.513L32.5019 135.83L33.3674 127.694ZM205.586 127.694L213.759 127.331L213.412 119.513H205.586V127.694ZM206.404 146.102L205.539 154.238L215 155.244L214.577 145.739L206.404 146.102ZM40.3216 245.506V237.325L39.4561 253.642L40.3216 245.506ZM212.131 245.506L220.294 244.962L219.785 237.325H212.131V245.506ZM213.358 263.914L212.493 272.05L222.169 273.079L221.521 263.37L213.358 263.914ZM42.776 284.777V276.595L41.9105 292.912L42.776 284.777ZM214.585 284.777L222.749 284.233L222.24 276.595H214.585V284.777ZM215.813 303.185L214.947 311.321L224.623 312.35L223.976 302.641L215.813 303.185ZM304.172 127.694H312.353V119.513H304.172V127.694ZM304.172 290.095H295.99V298.276H304.172V290.095ZM307.853 290.095V298.276H313.495L315.5 293.003L307.853 290.095ZM369.623 127.694V119.513H363.982L361.976 124.786L369.623 127.694ZM451.846 127.694L459.413 130.805L464.056 119.513H451.846V127.694ZM346.715 383.363V391.544H352.197L354.282 386.474L346.715 383.363ZM232.994 383.363L224.826 383.846L225.282 391.544H232.994V383.363ZM217.858 127.694V119.513H209.178L209.691 128.178L217.858 127.694ZM47.2758 371.909H219.494V355.546H47.2758V371.909ZM211.331 364.272L212.558 382.68L228.885 381.591L227.658 363.183L211.331 364.272ZM221.585 374L48.1392 355.592L46.4123 371.863L219.858 390.271L221.585 374ZM44.8214 332.229H217.04V315.866H44.8214V332.229ZM208.877 324.592L210.104 343L226.43 341.912L225.203 323.503L208.877 324.592ZM219.13 334.32L45.6848 315.912L43.9579 332.183L217.404 350.591L219.13 334.32ZM35.4128 175.146H207.631V158.783H35.4128V175.146ZM199.468 167.509L200.695 185.917L217.022 184.829L215.794 166.421L199.468 167.509ZM209.722 177.237L36.2762 158.829L34.5493 175.1L207.995 193.509L209.722 177.237ZM37.8672 214.417H210.086V198.054H37.8672V214.417ZM201.912 206.599L202.73 225.007L219.077 224.28L218.259 205.872L201.912 206.599ZM211.769 216.508L38.7327 198.1L37.0017 214.371L210.038 232.779L211.769 216.508ZM33.3674 135.875H205.586V119.513H33.3674V135.875ZM197.413 128.057L198.231 146.465L214.577 145.739L213.759 127.331L197.413 128.057ZM207.269 137.967L34.2329 119.559L32.5019 135.83L205.539 154.238L207.269 137.967ZM40.3216 253.688H212.131V237.325H40.3216V253.688ZM203.968 246.05L205.195 264.459L221.521 263.37L220.294 244.962L203.968 246.05ZM214.224 255.779L41.1871 237.371L39.4561 253.642L212.493 272.05L214.224 255.779ZM42.776 292.958H214.585V276.595H42.776V292.958ZM206.422 285.321L207.649 303.729L223.976 302.641L222.749 284.233L206.422 285.321ZM216.678 295.05L43.6415 276.641L41.9105 292.912L214.947 311.321L216.678 295.05ZM295.99 127.694V290.095H312.353V127.694H295.99ZM304.172 298.276H307.853V281.913H304.172V298.276ZM315.5 293.003L377.27 130.603L361.976 124.786L300.206 287.186L315.5 293.003ZM369.623 135.875H451.846V119.513H369.623V135.875ZM444.279 124.583L339.148 380.251L354.282 386.474L459.413 130.805L444.279 124.583ZM346.715 375.181H232.994V391.544H346.715V375.181ZM241.161 382.879L226.025 127.211L209.691 128.178L224.826 383.846L241.161 382.879ZM217.858 135.875H304.172V119.513H217.858V135.875Z" fill="black" mask="url(#path-1-outside-1_31_14)"/>
</g>
<g filter="url(#filter1_d_31_14)">
<mask id="path-3-outside-2_31_14" maskUnits="userSpaceOnUse" x="404.59" y="116" width="295" height="276" fill="black">
<rect fill="white" x="404.59" y="116" width="295" height="276"/>
<path d="M603.225 124.955C623.567 126.118 640.276 133.964 653.352 148.493C666.429 162.732 675.873 179.005 681.685 197.312C687.497 215.62 690.403 234.363 690.403 253.542C690.403 272.721 687.497 291.464 681.685 309.771C676.164 328.078 666.719 344.497 653.352 359.026C640.276 373.265 623.567 380.966 603.225 382.128H442.819C434.973 381.838 428.29 379.077 422.768 373.846C417.538 368.325 414.777 361.642 414.487 353.796V245.696C414.777 237.559 417.828 230.876 423.64 225.645C429.452 220.124 436.426 217.363 444.563 217.363C452.409 217.654 459.092 220.56 464.613 226.081C470.135 231.312 473.041 237.85 473.331 245.696V311.951C473.331 319.796 477.399 323.719 485.536 323.719H588.405C599.448 323.138 608.601 318.925 615.866 311.079C623.131 303.233 628.361 294.37 631.558 284.49C635.045 274.319 636.789 264.003 636.789 253.542C636.789 243.081 635.045 232.91 631.558 223.03C628.361 212.859 623.131 203.851 615.866 196.005C608.601 188.159 599.448 183.945 588.405 183.364H442.819C425.384 181.911 415.94 172.467 414.487 155.031C414.487 146.895 417.102 139.921 422.333 134.109C427.854 128.297 434.683 125.246 442.819 124.955H603.225Z"/>
</mask>
<path d="M603.225 124.955C623.567 126.118 640.276 133.964 653.352 148.493C666.429 162.732 675.873 179.005 681.685 197.312C687.497 215.62 690.403 234.363 690.403 253.542C690.403 272.721 687.497 291.464 681.685 309.771C676.164 328.078 666.719 344.497 653.352 359.026C640.276 373.265 623.567 380.966 603.225 382.128H442.819C434.973 381.838 428.29 379.077 422.768 373.846C417.538 368.325 414.777 361.642 414.487 353.796V245.696C414.777 237.559 417.828 230.876 423.64 225.645C429.452 220.124 436.426 217.363 444.563 217.363C452.409 217.654 459.092 220.56 464.613 226.081C470.135 231.312 473.041 237.85 473.331 245.696V311.951C473.331 319.796 477.399 323.719 485.536 323.719H588.405C599.448 323.138 608.601 318.925 615.866 311.079C623.131 303.233 628.361 294.37 631.558 284.49C635.045 274.319 636.789 264.003 636.789 253.542C636.789 243.081 635.045 232.91 631.558 223.03C628.361 212.859 623.131 203.851 615.866 196.005C608.601 188.159 599.448 183.945 588.405 183.364H442.819C425.384 181.911 415.94 172.467 414.487 155.031C414.487 146.895 417.102 139.921 422.333 134.109C427.854 128.297 434.683 125.246 442.819 124.955H603.225Z" fill="white"/>
<path d="M603.225 124.955L603.735 116.043L603.48 116.028H603.225V124.955ZM653.352 148.493L646.717 154.465L646.747 154.498L646.777 154.531L653.352 148.493ZM681.685 309.771L673.176 307.07L673.157 307.132L673.138 307.194L681.685 309.771ZM653.352 359.026L646.783 352.982L646.777 352.988L653.352 359.026ZM603.225 382.128V391.055H603.48L603.735 391.041L603.225 382.128ZM442.819 382.128L442.489 391.049L442.654 391.055H442.819V382.128ZM422.768 373.846L416.288 379.986L416.454 380.161L416.629 380.327L422.768 373.846ZM414.487 353.796H405.56V353.961L405.566 354.126L414.487 353.796ZM414.487 245.696L405.565 245.377L405.56 245.536V245.696H414.487ZM423.64 225.645L429.612 232.28L429.701 232.2L429.789 232.117L423.64 225.645ZM444.563 217.363L444.893 208.442L444.728 208.436H444.563V217.363ZM464.613 226.081L458.301 232.393L458.386 232.479L458.474 232.561L464.613 226.081ZM473.331 245.696H482.258V245.531L482.252 245.365L473.331 245.696ZM588.405 323.719V332.646H588.64L588.874 332.634L588.405 323.719ZM615.866 311.079L622.416 317.144L615.866 311.079ZM631.558 284.49L623.113 281.594L623.088 281.668L623.064 281.742L631.558 284.49ZM631.558 223.03L623.042 225.706L623.088 225.854L623.14 226.001L631.558 223.03ZM615.866 196.005L622.416 189.94L615.866 196.005ZM588.405 183.364L588.874 174.449L588.64 174.437H588.405V183.364ZM442.819 183.364L442.078 192.26L442.448 192.291H442.819V183.364ZM414.487 155.031H405.56V155.403L405.59 155.773L414.487 155.031ZM422.333 134.109L415.86 127.961L415.778 128.048L415.697 128.137L422.333 134.109ZM442.819 124.955V116.028H442.66L442.501 116.034L442.819 124.955ZM602.716 133.868C620.818 134.902 635.287 141.766 646.717 154.465L659.988 142.521C645.264 126.162 626.315 117.333 603.735 116.043L602.716 133.868ZM646.777 154.531C658.98 167.819 667.761 182.955 673.176 200.014L690.193 194.611C683.985 175.056 673.878 157.646 659.927 142.455L646.777 154.531ZM673.176 200.014C678.711 217.449 681.476 235.281 681.476 253.542H699.329C699.329 233.445 696.282 213.791 690.193 194.611L673.176 200.014ZM681.476 253.542C681.476 271.803 678.711 289.635 673.176 307.07L690.193 312.472C696.282 293.293 699.329 273.639 699.329 253.542H681.476ZM673.138 307.194C668.019 324.168 659.268 339.411 646.783 352.982L659.922 365.07C674.171 349.582 684.308 331.988 690.232 312.349L673.138 307.194ZM646.777 352.988C635.363 365.417 620.877 372.178 602.716 373.216L603.735 391.041C626.256 389.754 645.188 381.113 659.927 365.064L646.777 352.988ZM603.225 373.201H442.819V391.055H603.225V373.201ZM443.15 373.207C437.395 372.994 432.799 371.052 428.908 367.366L416.629 380.327C423.781 387.102 432.551 390.681 442.489 391.049L443.15 373.207ZM429.249 367.707C425.563 363.816 423.621 359.219 423.407 353.465L405.566 354.126C405.934 364.064 409.513 372.834 416.288 379.986L429.249 367.707ZM423.414 353.796V245.696H405.56V353.796H423.414ZM423.408 246.014C423.616 240.184 425.68 235.819 429.612 232.28L417.668 219.01C409.976 225.933 405.938 234.934 405.565 245.377L423.408 246.014ZM429.789 232.117C433.914 228.198 438.676 226.29 444.563 226.29V208.436C434.176 208.436 424.99 212.05 417.492 219.173L429.789 232.117ZM444.232 226.284C449.84 226.492 454.383 228.475 458.301 232.393L470.926 219.769C463.801 212.644 454.977 208.816 444.893 208.442L444.232 226.284ZM458.474 232.561C462.239 236.128 464.203 240.431 464.41 246.026L482.252 245.365C481.878 235.269 478.031 226.495 470.753 219.6L458.474 232.561ZM464.404 245.696V311.951H482.258V245.696H464.404ZM464.404 311.951C464.404 317.334 465.817 322.991 470.186 327.203C474.494 331.357 480.171 332.646 485.536 332.646V314.793C482.764 314.793 482.339 314.12 482.579 314.351C482.879 314.641 482.258 314.413 482.258 311.951H464.404ZM485.536 332.646H588.405V314.793H485.536V332.646ZM588.874 332.634C602.149 331.935 613.514 326.759 622.416 317.144L609.316 305.014C603.689 311.091 596.746 314.341 587.936 314.805L588.874 332.634ZM622.416 317.144C630.535 308.375 636.444 298.389 640.051 287.238L623.064 281.742C620.279 290.351 615.726 298.09 609.316 305.014L622.416 317.144ZM640.002 287.385C643.8 276.309 645.715 265.016 645.715 253.542H627.862C627.862 262.991 626.29 272.329 623.113 281.594L640.002 287.385ZM645.715 253.542C645.715 242.067 643.799 230.892 639.976 220.059L623.14 226.001C626.291 234.928 627.862 244.094 627.862 253.542H645.715ZM640.074 220.353C636.48 208.918 630.576 198.753 622.416 189.94L609.316 202.07C615.685 208.949 620.243 216.801 623.042 225.706L640.074 220.353ZM622.416 189.94C613.514 180.325 602.149 175.148 588.874 174.449L587.936 192.279C596.746 192.742 603.689 195.993 609.316 202.07L622.416 189.94ZM588.405 174.437H442.819V192.291H588.405V174.437ZM443.561 174.468C436.285 173.862 431.79 171.698 428.972 168.879C426.153 166.06 423.989 161.565 423.383 154.29L405.59 155.773C406.437 165.933 409.722 174.878 416.347 181.504C422.973 188.129 431.918 191.414 442.078 192.26L443.561 174.468ZM423.414 155.031C423.414 149.002 425.277 144.182 428.968 140.081L415.697 128.137C408.927 135.66 405.56 144.788 405.56 155.031H423.414ZM428.805 140.257C432.689 136.169 437.295 134.085 443.138 133.877L442.501 116.034C432.07 116.407 423.019 120.425 415.86 127.961L428.805 140.257ZM442.819 133.882H603.225V116.028H442.819V133.882Z" fill="black" mask="url(#path-3-outside-2_31_14)"/>
</g>
<defs>
<filter id="filter0_d_31_14" x="0.641838" y="127.694" width="483.93" height="321.12" filterUnits="userSpaceOnUse" color-interpolation-filters="sRGB">
<feFlood flood-opacity="0" result="BackgroundImageFix"/>
<feColorMatrix in="SourceAlpha" type="matrix" values="0 0 0 0 0 0 0 0 0 0 0 0 0 0 0 0 0 0 127 0" result="hardAlpha"/>
<feOffset dy="32.7256"/>
<feGaussianBlur stdDeviation="16.3628"/>
<feComposite in2="hardAlpha" operator="out"/>
<feColorMatrix type="matrix" values="0 0 0 0 0 0 0 0 0 0 0 0 0 0 0 0 0 0 0.25 0"/>
<feBlend mode="normal" in2="BackgroundImageFix" result="effect1_dropShadow_31_14"/>
<feBlend mode="normal" in="SourceGraphic" in2="effect1_dropShadow_31_14" result="shape"/>
</filter>
<filter id="filter1_d_31_14" x="378.779" y="124.955" width="347.331" height="328.588" filterUnits="userSpaceOnUse" color-interpolation-filters="sRGB">
<feFlood flood-opacity="0" result="BackgroundImageFix"/>
<feColorMatrix in="SourceAlpha" type="matrix" values="0 0 0 0 0 0 0 0 0 0 0 0 0 0 0 0 0 0 127 0" result="hardAlpha"/>
<feOffset dy="35.7078"/>
<feGaussianBlur stdDeviation="17.8539"/>
<feComposite in2="hardAlpha" operator="out"/>
<feColorMatrix type="matrix" values="0 0 0 0 0 0 0 0 0 0 0 0 0 0 0 0 0 0 0.25 0"/>
<feBlend mode="normal" in2="BackgroundImageFix" result="effect1_dropShadow_31_14"/>
<feBlend mode="normal" in="SourceGraphic" in2="effect1_dropShadow_31_14" result="shape"/>
</filter>
</defs>
</svg>
